<mxfile host="app.diagrams.net" modified="2023-05-12T18:59:46.509Z" agent="Mozilla/5.0 (Windows NT 10.0; Win64; x64; rv:109.0) Gecko/20100101 Firefox/112.0" version="21.2.9" etag="z7nLZ5ih68eKciVNmwYi" type="github">
  <diagram name="Page-1" id="fR5AoKFUi878igqshQwZ">
    <mxGraphModel>
      <root>
        <mxCell id="0" />
        <mxCell id="1" parent="0" />
      </root>
    </mxGraphModel>
  </diagram>
</mxfile>
